<svg width="43" height="42" viewBox="0 0 43 42" fill="none" xmlns="http://www.w3.org/2000/svg">
<rect y="0.209229" width="42.2925" height="41.5093" rx="20.7547" fill="#FEE1D9"/>
<path d="M17.813 12.6306V15.1306" stroke="#E73201" stroke-width="1.27" stroke-miterlimit="10" stroke-linecap="round" stroke-linejoin="round"/>
<path d="M24.4795 12.6306V15.1306" stroke="#E73201" stroke-width="1.27" stroke-miterlimit="10" stroke-linecap="round" stroke-linejoin="round"/>
<path d="M14.063 18.5388H28.2297" stroke="#E73201" stroke-width="1.27" stroke-miterlimit="10" stroke-linecap="round" stroke-linejoin="round"/>
<path d="M28.6462 18.0473V25.1306C28.6462 27.6306 27.3962 29.2973 24.4796 29.2973H17.8129C14.8962 29.2973 13.6462 27.6306 13.6462 25.1306V18.0473C13.6462 15.5473 14.8962 13.8806 17.8129 13.8806H24.4796C27.3962 13.8806 28.6462 15.5473 28.6462 18.0473Z" stroke="#E73201" stroke-width="1.27" stroke-miterlimit="10" stroke-linecap="round" stroke-linejoin="round"/>
<path d="M24.2251 22.3805H24.2326" stroke="#E73201" stroke-width="1.27" stroke-linecap="round" stroke-linejoin="round"/>
<path d="M24.2251 24.8805H24.2326" stroke="#E73201" stroke-width="1.27" stroke-linecap="round" stroke-linejoin="round"/>
<path d="M21.1426 22.3805H21.15" stroke="#E73201" stroke-width="1.27" stroke-linecap="round" stroke-linejoin="round"/>
<path d="M21.1426 24.8805H21.15" stroke="#E73201" stroke-width="1.27" stroke-linecap="round" stroke-linejoin="round"/>
<path d="M18.0581 22.3805H18.0656" stroke="#E73201" stroke-width="1.27" stroke-linecap="round" stroke-linejoin="round"/>
<path d="M18.0581 24.8805H18.0656" stroke="#E73201" stroke-width="1.27" stroke-linecap="round" stroke-linejoin="round"/>
</svg>
