<svg width="49" height="47" viewBox="0 0 49 47" fill="none" xmlns="http://www.w3.org/2000/svg">
<g clip-path="url(#clip0_515_2875)">
<path fill-rule="evenodd" clip-rule="evenodd" d="M19.8895 1.90723C19.5663 1.90723 19.2563 2.03563 19.0277 2.26419C18.7991 2.49275 18.6707 2.80274 18.6707 3.12598C18.6707 3.44921 18.7991 3.7592 19.0277 3.98776C19.2563 4.21632 19.5663 4.34473 19.8895 4.34473H21.1082V6.95285C16.8388 7.56993 12.9616 9.78102 10.2565 13.1413C7.55143 16.5015 6.21933 20.7615 6.52821 25.0642C6.83709 29.3669 8.76402 33.3929 11.9213 36.3323C15.0786 39.2717 19.232 40.9063 23.5457 40.9072C27.8648 40.915 32.0261 39.2845 35.1903 36.3447C38.3544 33.4049 40.2859 29.3745 40.5952 25.0665C40.9044 20.7585 39.5684 16.4935 36.8566 13.1319C34.1449 9.77023 30.2591 7.56208 25.9832 6.95285V4.34473H27.202C27.5252 4.34473 27.8352 4.21632 28.0638 3.98776C28.2923 3.7592 28.4207 3.44921 28.4207 3.12598C28.4207 2.80274 28.2923 2.49275 28.0638 2.26419C27.8352 2.03563 27.5252 1.90723 27.202 1.90723H19.8895ZM24.7645 15.5572C24.7645 15.234 24.6361 14.924 24.4075 14.6954C24.179 14.4669 23.869 14.3385 23.5457 14.3385C23.2225 14.3385 22.9125 14.4669 22.684 14.6954C22.4554 14.924 22.327 15.234 22.327 15.5572V22.626H15.0145C14.6913 22.626 14.3813 22.7544 14.1527 22.9829C13.9241 23.2115 13.7957 23.5215 13.7957 23.8447C13.7957 24.168 13.9241 24.478 14.1527 24.7065C14.3813 24.9351 14.6913 25.0635 15.0145 25.0635H23.5457C23.869 25.0635 24.179 24.9351 24.4075 24.7065C24.6361 24.478 24.7645 24.168 24.7645 23.8447V15.5572Z" fill="#E73201"/>
</g>
<defs>
<clipPath id="clip0_515_2875">
<rect width="39" height="39" fill="white" transform="translate(4.04688 1)"/>
</clipPath>
</defs>
</svg>
