<svg width="24" height="24" viewBox="0 0 24 24" fill="none" xmlns="http://www.w3.org/2000/svg">
<path d="M8.49989 5.1001L11.1999 7.8001C11.5999 8.2001 12.3999 8.2001 12.7999 7.8001L15.4999 5.1001C16.1999 4.4001 15.6999 3.1001 14.6999 3.1001H9.29989C8.29989 3.2001 7.79989 4.4001 8.49989 5.1001Z" stroke="#E73201" stroke-width="1.5" stroke-miterlimit="10" stroke-linecap="round" stroke-linejoin="round"/>
<path d="M8.49989 18.8999L11.1999 16.1999C11.5999 15.7999 12.3999 15.7999 12.7999 16.1999L15.4999 18.8999C16.1999 19.5999 15.6999 20.8999 14.6999 20.8999H9.29989C8.29989 20.7999 7.79989 19.5999 8.49989 18.8999Z" stroke="#E73201" stroke-width="1.5" stroke-miterlimit="10" stroke-linecap="round" stroke-linejoin="round"/>
<path d="M2.2001 11.5001L4.4001 8.00012C4.7001 7.40012 5.5001 7.30012 6.0001 7.80012L9.5001 11.3001C9.9001 11.7001 9.9001 12.3001 9.5001 12.7001L6.0001 16.2001C5.5001 16.7001 4.8001 16.6001 4.4001 16.0001L2.2001 12.5001C1.9001 12.2001 1.9001 11.8001 2.2001 11.5001Z" stroke="#E73201" stroke-width="1.5" stroke-miterlimit="10" stroke-linecap="round" stroke-linejoin="round"/>
<path d="M21.8 11.5L19.6 8.00004C19.3 7.50004 18.5 7.40004 18 7.80004L14.5 11.3C14.1 11.7 14.1 12.3 14.5 12.7L18 16.2C18.5 16.7 19.2 16.6 19.6 16L21.8 12.5C22.1 12.2 22.1 11.8 21.8 11.5Z" stroke="#E73201" stroke-width="1.5" stroke-miterlimit="10" stroke-linecap="round" stroke-linejoin="round"/>
</svg>
