<svg width="76" height="76" viewBox="0 0 76 76" fill="none" xmlns="http://www.w3.org/2000/svg">
<rect x="0.355713" y="40.9174" width="6.27405" height="18.8222" rx="3.13703" transform="rotate(-90 0.355713 40.9174)" fill="black"/>
<rect x="41.137" y="75.4247" width="6.27405" height="18.8222" rx="3.13703" transform="rotate(180 41.137 75.4247)" fill="#6D6D6D"/>
<rect x="75.6443" y="34.6433" width="6.27405" height="18.8222" rx="3.13703" transform="rotate(90 75.6443 34.6433)" fill="#989898"/>
<rect x="34.863" y="0.136047" width="6.27405" height="18.8222" rx="3.13703" fill="#C4C4C4"/>
<rect x="13.5996" y="66.6171" width="6.27405" height="18.8222" rx="3.13703" transform="rotate(-135 13.5996 66.6171)" fill="#414141"/>
<rect x="66.8367" y="62.1808" width="6.27405" height="18.8222" rx="3.13703" transform="rotate(135 66.8367 62.1808)" fill="#828282"/>
<rect x="62.4004" y="8.9436" width="6.27405" height="18.8222" rx="3.13703" transform="rotate(45 62.4004 8.9436)" fill="#AEAEAE"/>
<rect x="9.16333" y="13.3801" width="6.27405" height="18.8222" rx="3.13703" transform="rotate(-45 9.16333 13.3801)" fill="#D9D9D9"/>
</svg>
