<svg width="27" height="28" viewBox="0 0 27 28" fill="none" xmlns="http://www.w3.org/2000/svg">
<path d="M10.9658 12.8434C12.042 13.477 12.8425 13.7944 13.6431 13.7944C14.4448 13.7944 15.2454 13.4781 16.3227 12.8434L19.5535 10.9325C19.9455 10.7019 20.0751 10.1968 19.8434 9.80475C19.6128 9.4127 19.1077 9.28305 18.7156 9.51477L15.4859 11.4246C13.8672 12.3767 13.4191 12.3767 11.8026 11.4246L8.57176 9.51369C8.18081 9.28198 7.6756 9.41262 7.44388 9.80357C7.21217 10.1945 7.34292 10.6997 7.73387 10.9315L10.9658 12.8434Z" fill="#161616"/>
<path fill-rule="evenodd" clip-rule="evenodd" d="M10.4373 24.1809C11.5157 24.2084 12.5798 24.2227 13.6439 24.2227C14.7081 24.2227 15.7722 24.2084 16.8506 24.1809L16.8521 24.1809C20.4071 24.0909 22.3659 24.0412 23.8427 22.5655C25.3164 21.0797 25.3571 19.1733 25.4306 15.7107C25.4537 14.6049 25.4537 13.5309 25.4306 12.425C25.3571 8.96245 25.3164 7.0549 23.8394 5.56687C22.3645 4.09422 20.4054 4.04377 16.8496 3.95372C14.6916 3.89881 12.5941 3.89881 10.4362 3.95372L10.4347 3.95376C6.87975 4.04378 4.92096 4.09339 3.44412 5.56913C1.97037 7.05496 1.92974 8.96138 1.85616 12.4239C1.8331 13.5298 1.8331 14.6038 1.85616 15.7096C1.92974 19.1722 1.9704 21.0797 3.44744 22.5678C4.92229 24.0404 6.88137 24.0909 10.4373 24.1809ZM4.61372 21.4036C3.6023 20.3856 3.57044 18.9086 3.50235 15.6745C3.47929 14.5917 3.47929 13.5396 3.50235 12.4579C3.57044 9.22379 3.60227 7.74791 4.61039 6.731C5.61953 5.72186 7.1414 5.68329 10.4771 5.59875C12.6075 5.54384 14.6785 5.54382 16.8078 5.59873C20.1441 5.68329 21.6662 5.72282 22.6732 6.72875C23.6846 7.74676 23.7164 9.22379 23.7845 12.4579C23.8075 13.5407 23.8075 14.5928 23.7845 15.6745C23.7164 18.9086 23.6845 20.3846 22.6764 21.4015C21.6674 22.4105 20.1457 22.4491 16.8108 22.5336L16.8089 22.5337C14.6785 22.5886 12.6084 22.5886 10.4791 22.5337C7.14283 22.4491 5.62074 22.4096 4.61372 21.4036Z" fill="#161616"/>
</svg>
