<svg width="32" height="33" viewBox="0 0 32 33" fill="none" xmlns="http://www.w3.org/2000/svg">
<path d="M16.0268 4.37988C11.6135 4.37988 8.02678 7.96655 8.02678 12.3799V16.2332C8.02678 17.0466 7.68012 18.2865 7.26678 18.9799L5.73345 21.5266C4.78678 23.0999 5.44012 24.8466 7.17345 25.4332C12.9201 27.3532 19.1201 27.3532 24.8668 25.4332C26.4801 24.8999 27.1868 22.9932 26.3068 21.5266L24.7734 18.9799C24.3734 18.2865 24.0268 17.0466 24.0268 16.2332V12.3799C24.0268 7.97988 20.4268 4.37988 16.0268 4.37988Z" stroke="#2E2923" stroke-width="1.5" stroke-miterlimit="10" stroke-linecap="round"/>
<path d="M18.4929 4.76667C18.0796 4.64667 17.6529 4.55334 17.2129 4.5C15.9329 4.34 14.7062 4.43334 13.5596 4.76667C13.9462 3.78 14.9062 3.08667 16.0262 3.08667C17.1462 3.08667 18.1062 3.78 18.4929 4.76667Z" stroke="#2E2923" stroke-width="1.5" stroke-miterlimit="10" stroke-linecap="round" stroke-linejoin="round"/>
<path d="M20.0264 25.9133C20.0264 28.1133 18.2264 29.9133 16.0264 29.9133C14.933 29.9133 13.9197 29.46 13.1997 28.74C12.4797 28.02 12.0264 27.0067 12.0264 25.9133" stroke="#2E2923" stroke-width="1.5" stroke-miterlimit="10"/>
</svg>
