<svg width="38" height="38" viewBox="0 0 38 38" fill="none" xmlns="http://www.w3.org/2000/svg">
<rect width="38" height="38" rx="19" fill="#FEE1D9"/>
<path d="M25.0001 14.16C24.9401 14.15 24.8701 14.15 24.8101 14.16C23.4301 14.11 22.3301 12.98 22.3301 11.58C22.3301 10.15 23.4801 9 24.9101 9C26.3401 9 27.4901 10.16 27.4901 11.58C27.4801 12.98 26.3801 14.11 25.0001 14.16Z" stroke="#E73201" stroke-width="1.24" stroke-linecap="round" stroke-linejoin="round"/>
<path d="M23.9704 21.4402C25.3404 21.6702 26.8504 21.4302 27.9104 20.7202C29.3204 19.7802 29.3204 18.2402 27.9104 17.3002C26.8404 16.5902 25.3104 16.3502 23.9404 16.5902" stroke="#E73201" stroke-width="1.24" stroke-linecap="round" stroke-linejoin="round"/>
<path d="M12.9705 14.16C13.0305 14.15 13.1005 14.15 13.1605 14.16C14.5405 14.11 15.6405 12.98 15.6405 11.58C15.6405 10.15 14.4905 9 13.0605 9C11.6305 9 10.4805 10.16 10.4805 11.58C10.4905 12.98 11.5905 14.11 12.9705 14.16Z" stroke="#E73201" stroke-width="1.24" stroke-linecap="round" stroke-linejoin="round"/>
<path d="M14.0004 21.4402C12.6304 21.6702 11.1204 21.4302 10.0604 20.7202C8.65043 19.7802 8.65043 18.2402 10.0604 17.3002C11.1304 16.5902 12.6604 16.3502 14.0304 16.5902" stroke="#E73201" stroke-width="1.24" stroke-linecap="round" stroke-linejoin="round"/>
<path d="M19.0001 21.6302C18.9401 21.6202 18.8701 21.6202 18.8101 21.6302C17.4301 21.5802 16.3301 20.4502 16.3301 19.0502C16.3301 17.6202 17.4801 16.4702 18.9101 16.4702C20.3401 16.4702 21.4901 17.6302 21.4901 19.0502C21.4801 20.4502 20.3801 21.5902 19.0001 21.6302Z" stroke="#E73201" stroke-width="1.24" stroke-linecap="round" stroke-linejoin="round"/>
<path d="M16.0897 24.7804C14.6797 25.7204 14.6797 27.2603 16.0897 28.2003C17.6897 29.2703 20.3097 29.2703 21.9097 28.2003C23.3197 27.2603 23.3197 25.7204 21.9097 24.7804C20.3197 23.7204 17.6897 23.7204 16.0897 24.7804Z" stroke="#E73201" stroke-width="1.24" stroke-linecap="round" stroke-linejoin="round"/>
</svg>
