<svg width="32" height="33" viewBox="0 0 32 33" fill="none" xmlns="http://www.w3.org/2000/svg">
<path d="M16.2134 14.9934C16.0801 14.9801 15.9201 14.9801 15.7734 14.9934C12.6001 14.8867 10.0801 12.2867 10.0801 9.08675C10.0801 5.82008 12.7201 3.16675 16.0001 3.16675C19.2667 3.16675 21.9201 5.82008 21.9201 9.08675C21.9067 12.2867 19.3867 14.8867 16.2134 14.9934Z" stroke="#2E2923" stroke-width="1.5" stroke-linecap="round" stroke-linejoin="round"/>
<path d="M9.54695 19.9133C6.32029 22.0733 6.32029 25.5933 9.54695 27.7399C13.2136 30.1933 19.227 30.1933 22.8936 27.7399C26.1203 25.5799 26.1203 22.0599 22.8936 19.9133C19.2403 17.4733 13.227 17.4733 9.54695 19.9133Z" stroke="#2E2923" stroke-width="1.5" stroke-linecap="round" stroke-linejoin="round"/>
</svg>
