<svg width="32" height="32" viewBox="0 0 32 32" fill="none" xmlns="http://www.w3.org/2000/svg">
<g clip-path="url(#clip0_7_473)">
<path d="M13.1871 0.456362C12.8121 0.0626121 12.2496 -0.0873879 11.7246 0.0501121C11.1996 0.187612 10.7934 0.606362 10.6559 1.13136L9.66837 5.03761L5.79337 3.94386C5.26837 3.79386 4.70587 3.94386 4.32462 4.32511C3.94337 4.70636 3.79337 5.26886 3.94337 5.79386L5.03712 9.66886L1.13087 10.6626C0.605874 10.7939 0.193374 11.2064 0.0496239 11.7314C-0.0941261 12.2564 0.0621239 12.8126 0.455874 13.1876L3.34337 16.0001L0.455874 18.8126C0.0621239 19.1876 -0.0878761 19.7501 0.0496239 20.2751C0.187124 20.8001 0.605874 21.2064 1.13087 21.3439L5.03712 22.3314L3.94337 26.2064C3.79337 26.7314 3.94337 27.2939 4.32462 27.6751C4.70587 28.0564 5.26837 28.2064 5.79337 28.0564L9.66837 26.9626L10.6559 30.8689C10.7871 31.3939 11.1996 31.8064 11.7246 31.9501C12.2496 32.0939 12.8059 31.9376 13.1871 31.5501L15.9996 28.6626L18.8121 31.5501C19.1934 31.9376 19.7496 32.0939 20.2746 31.9501C20.7996 31.8064 21.2059 31.3939 21.3434 30.8689L22.3309 26.9626L26.2059 28.0564C26.7309 28.2064 27.2934 28.0564 27.6746 27.6751C28.0559 27.2939 28.2059 26.7314 28.0559 26.2064L26.9621 22.3314L30.8684 21.3439C31.3934 21.2126 31.8059 20.8001 31.9496 20.2751C32.0934 19.7501 31.9371 19.1939 31.5496 18.8126L28.6621 16.0001L31.5496 13.1876C31.9371 12.8064 32.0934 12.2501 31.9496 11.7251C31.8059 11.2001 31.3934 10.7939 30.8684 10.6564L26.9621 9.66886L28.0559 5.79386C28.2059 5.26886 28.0559 4.70636 27.6746 4.32511C27.2934 3.94386 26.7309 3.79386 26.2059 3.94386L22.3309 5.03761L21.3371 1.13136C21.2059 0.606362 20.7934 0.193862 20.2684 0.0501121C19.7434 -0.0936378 19.1871 0.0626121 18.8121 0.456362L15.9996 3.34386L13.1871 0.456362Z" fill="url(#paint0_linear_7_473)"/>
</g>
<defs>
<linearGradient id="paint0_linear_7_473" x1="15.9997" y1="-0.00244141" x2="15.9997" y2="32.0028" gradientUnits="userSpaceOnUse">
<stop stop-color="#BE2900"/>
<stop offset="1" stop-color="#4E1200"/>
</linearGradient>
<clipPath id="clip0_7_473">
<path d="M0 0H32V32H0V0Z" fill="white"/>
</clipPath>
</defs>
</svg>
