<svg width="43" height="43" viewBox="0 0 43 43" fill="none" xmlns="http://www.w3.org/2000/svg">
<path fill-rule="evenodd" clip-rule="evenodd" d="M36.906 2.63366C36.4652 2.19286 35.9358 1.85082 35.3528 1.63022C34.7698 1.40963 34.1465 1.31552 33.5244 1.35415C32.9022 1.39279 32.2954 1.56327 31.7441 1.85429C31.1929 2.14531 30.7098 2.55022 30.327 3.04216L25.8093 8.85254C24.9789 9.91679 24.6859 11.3062 25.0138 12.615L26.3925 18.1325C26.4642 18.4188 26.4605 18.7188 26.3819 19.0032C26.3032 19.2877 26.1523 19.5469 25.9437 19.7557L19.7517 25.945C19.5429 26.1536 19.2836 26.3046 18.9992 26.3832C18.7147 26.4619 18.4147 26.4656 18.1284 26.3939L12.6137 25.0152C11.9668 24.8536 11.2917 24.8413 10.6394 24.9791C9.98712 25.1169 9.3747 25.4013 8.84849 25.8107L3.03811 30.3284C0.949924 31.9516 0.756428 35.0395 2.62693 36.9074L5.2338 39.5142C7.09624 41.3767 9.88318 42.1964 12.482 41.2826C19.1298 38.9427 25.1655 35.1363 30.1416 30.1456C35.1332 25.1698 38.9406 19.1341 41.2812 12.486C42.195 9.88723 41.3753 7.10029 39.5129 5.23516L36.906 2.63098V2.63366Z" fill="#E73201"/>
</svg>
