<svg width="35" height="34" viewBox="0 0 35 34" fill="none" xmlns="http://www.w3.org/2000/svg">
<rect width="34.381" height="33.7443" rx="16.8721" fill="#FEE1D9"/>
<path d="M17.1902 18.8721H18.1902C19.2902 18.8721 20.1902 17.9721 20.1902 16.8721V6.87207H11.1902C9.69019 6.87207 8.3802 7.70206 7.7002 8.92206" stroke="#E73201" stroke-width="1.24" stroke-linecap="round" stroke-linejoin="round"/>
<path d="M7.19043 21.8721C7.19043 23.5321 8.53043 24.8721 10.1904 24.8721H11.1904C11.1904 23.7721 12.0904 22.8721 13.1904 22.8721C14.2904 22.8721 15.1904 23.7721 15.1904 24.8721H19.1904C19.1904 23.7721 20.0904 22.8721 21.1904 22.8721C22.2904 22.8721 23.1904 23.7721 23.1904 24.8721H24.1904C25.8504 24.8721 27.1904 23.5321 27.1904 21.8721V18.8721H24.1904C23.6404 18.8721 23.1904 18.4221 23.1904 17.8721V14.8721C23.1904 14.3221 23.6404 13.8721 24.1904 13.8721H25.4804L23.7704 10.8821C23.4104 10.2621 22.7505 9.87207 22.0305 9.87207H20.1904V16.8721C20.1904 17.9721 19.2904 18.8721 18.1904 18.8721H17.1904" stroke="#E73201" stroke-width="1.24" stroke-linecap="round" stroke-linejoin="round"/>
<path d="M13.1904 26.8721C14.295 26.8721 15.1904 25.9766 15.1904 24.8721C15.1904 23.7675 14.295 22.8721 13.1904 22.8721C12.0859 22.8721 11.1904 23.7675 11.1904 24.8721C11.1904 25.9766 12.0859 26.8721 13.1904 26.8721Z" stroke="#E73201" stroke-width="1.24" stroke-linecap="round" stroke-linejoin="round"/>
<path d="M21.1904 26.8721C22.295 26.8721 23.1904 25.9766 23.1904 24.8721C23.1904 23.7675 22.295 22.8721 21.1904 22.8721C20.0859 22.8721 19.1904 23.7675 19.1904 24.8721C19.1904 25.9766 20.0859 26.8721 21.1904 26.8721Z" stroke="#E73201" stroke-width="1.24" stroke-linecap="round" stroke-linejoin="round"/>
<path d="M27.1904 16.8721V18.8721H24.1904C23.6404 18.8721 23.1904 18.4221 23.1904 17.8721V14.8721C23.1904 14.3221 23.6404 13.8721 24.1904 13.8721H25.4804L27.1904 16.8721Z" stroke="#E73201" stroke-width="1.24" stroke-linecap="round" stroke-linejoin="round"/>
<path d="M7.19043 12.8721H13.1904" stroke="#E73201" stroke-width="1.24" stroke-linecap="round" stroke-linejoin="round"/>
<path d="M7.19043 15.8721H11.1904" stroke="#E73201" stroke-width="1.24" stroke-linecap="round" stroke-linejoin="round"/>
<path d="M7.19043 18.8721H9.19043" stroke="#E73201" stroke-width="1.24" stroke-linecap="round" stroke-linejoin="round"/>
</svg>
