<svg width="22" height="26" viewBox="0 0 22 26" fill="none" xmlns="http://www.w3.org/2000/svg">
<path d="M17.8552 0.669392C16.3343 0.0521877 14.6221 -0.132279 12.896 0.0915111C10.5393 0.396837 6.41762 1.18116 2.85664 3.13937L0.655562 20.1179C2.19491 18.1499 8.20447 10.6534 13.3462 6.83681C13.3462 6.83681 19.0952 3.1519 18.9878 7.69997C18.962 8.79464 18.6033 9.89412 17.9886 10.8803C16.2486 13.6721 11.1602 20.4145 1.28414 23.1259C1.05515 23.1887 0.827307 23.259 0.59947 23.3282C0.474564 23.3662 0.350044 23.4013 0.225717 23.4343L0 25.1758C0.263305 25.1197 0.532198 25.0577 0.807647 24.9879C0.807647 24.9879 13.5594 22.0821 20.2791 10.6335C20.2791 10.6335 24.4125 3.33039 17.8552 0.669392Z" fill="#FF3700"/>
</svg>
