<svg width="145" height="76" viewBox="0 0 145 76" fill="none" xmlns="http://www.w3.org/2000/svg">
<g clip-path="url(#clip0_7_752)">
<mask id="mask0_7_752" style="mask-type:luminance" maskUnits="userSpaceOnUse" x="-62" y="-96" width="269" height="268">
<path d="M-61.0645 -95.5945H206.065V171.535H-61.0645V-95.5945Z" fill="white"/>
</mask>
<g mask="url(#mask0_7_752)">
<path d="M22.662 22.6768C20.7105 21.8848 18.5133 21.6481 16.2984 21.9352C13.2744 22.327 7.98549 23.3335 3.41609 25.8462L0.591696 47.6328C2.56697 45.1074 10.2783 35.4881 16.8762 30.5907C16.8762 30.5907 24.2532 25.8623 24.1154 31.6983C24.0822 33.103 23.6219 34.5138 22.8332 35.7792C20.6004 39.3617 14.0711 48.0135 1.39828 51.4926C1.10444 51.5732 0.812077 51.6635 0.519719 51.7523C0.359442 51.801 0.19966 51.846 0.0401249 51.8883L-0.249512 54.123C0.0883572 54.0511 0.433398 53.9714 0.786849 53.8819C0.786849 53.8819 17.1497 50.1532 25.7723 35.4626C25.7723 35.4626 31.0763 26.0913 22.662 22.6768Z" fill="#FF3700"/>
</g>
<mask id="mask1_7_752" style="mask-type:luminance" maskUnits="userSpaceOnUse" x="-62" y="-96" width="269" height="268">
<path d="M-61.0645 -95.5945H206.065V171.535H-61.0645V-95.5945Z" fill="white"/>
</mask>
<g mask="url(#mask1_7_752)">
<path d="M37.0507 42.5402C39.2426 42.5402 41.3648 40.8612 41.8313 37.6663C42.2275 34.7514 40.5486 33.2357 38.3566 33.2357H37.4471L36.1647 42.5402H37.0507ZM39.4058 29.8078C43.9765 29.8078 47.1246 32.6295 46.4252 37.6663C45.6557 43.0999 41.6913 46.1313 37.1206 46.1313H31.0808L33.3662 29.8078H39.4058Z" fill="#FF3700"/>
</g>
<mask id="mask2_7_752" style="mask-type:luminance" maskUnits="userSpaceOnUse" x="-62" y="-96" width="269" height="268">
<path d="M-61.0645 -95.5945H206.065V171.535H-61.0645V-95.5945Z" fill="white"/>
</mask>
<g mask="url(#mask2_7_752)">
<path d="M55.3571 37.8296C56.7328 37.8296 57.759 36.8501 57.9455 35.5441C58.132 34.2152 57.3158 33.2589 55.4971 33.2589H53.9579L53.4216 37.1533C53.9346 37.5266 54.5641 37.8296 55.3571 37.8296ZM49.877 29.8078H56.8496C60.8372 29.8078 63.0291 31.8597 62.5861 34.8914C62.1897 37.6196 60.0677 39.6018 56.8496 39.6953C57.7358 41.374 58.9715 42.1902 61.1402 42.2137C61.4902 42.2137 61.8399 42.1902 62.1664 42.167L61.3109 45.9196C60.7979 46.0596 59.999 46.1313 59.5325 46.1313C55.8946 46.1313 53.9346 43.1697 53.0252 39.835L52.1389 46.1313H47.5918L49.877 29.8078Z" fill="#FF3700"/>
</g>
<mask id="mask3_7_752" style="mask-type:luminance" maskUnits="userSpaceOnUse" x="-62" y="-96" width="269" height="268">
<path d="M-61.0642 -95.5945H206.065V171.535H-61.0642V-95.5945Z" fill="white"/>
</mask>
<g mask="url(#mask3_7_752)">
<path d="M71.0733 29.8078L68.7879 46.1313H64.2175L66.5027 29.8078H71.0733Z" fill="#FF3700"/>
</g>
<mask id="mask4_7_752" style="mask-type:luminance" maskUnits="userSpaceOnUse" x="-62" y="-96" width="269" height="268">
<path d="M-61.0642 -95.5945H206.065V171.535H-61.0642V-95.5945Z" fill="white"/>
</mask>
<g mask="url(#mask4_7_752)">
<path d="M86.1134 29.8078L85.5536 33.8652H78.3481L77.8584 37.3166H83.1985L82.9187 39.252H77.5786L76.6224 46.1313H72.0518L74.3372 29.8078H86.1134Z" fill="#FF3700"/>
</g>
<mask id="mask5_7_752" style="mask-type:luminance" maskUnits="userSpaceOnUse" x="-62" y="-96" width="269" height="268">
<path d="M-61.0645 -95.5945H206.065V171.535H-61.0645V-95.5945Z" fill="white"/>
</mask>
<g mask="url(#mask5_7_752)">
<path d="M99.0559 33.8419H95.0215L93.296 46.1313H88.8419L90.5676 33.8419H86.5334L87.0929 29.8078H99.6156L99.0559 33.8419Z" fill="#FF3700"/>
</g>
<mask id="mask6_7_752" style="mask-type:luminance" maskUnits="userSpaceOnUse" x="-62" y="-96" width="269" height="268">
<path d="M-61.0642 -95.5945H206.065V171.535H-61.0642V-95.5945Z" fill="white"/>
</mask>
<g mask="url(#mask6_7_752)">
<path d="M113.024 29.8078L112.464 33.8652H105.259L104.839 36.8036H110.179L109.923 38.739H104.559L104.093 42.0737H111.299L110.739 46.1313H98.9624L101.248 29.8078H113.024Z" fill="#FF3700"/>
</g>
<mask id="mask7_7_752" style="mask-type:luminance" maskUnits="userSpaceOnUse" x="-26" y="-1" width="202" height="78">
<path d="M-25.866 -0.000488281H175.267V76.0527H-25.866V-0.000488281Z" fill="white"/>
</mask>
<g mask="url(#mask7_7_752)">
<path d="M113.622 38.1143C114.314 33.2238 117.485 29.8073 121.504 29.8073C125.591 29.8073 127.377 32.7103 126.998 35.7249L122.643 36.6404C122.665 35.3675 122.286 33.4919 121.035 33.4919C119.673 33.4919 118.512 35.0326 118.132 37.6005C117.73 40.6151 118.579 41.9998 120.321 42.1336C122.129 42.2454 125.345 41.1734 126.06 40.861L125.144 44.9251C123.291 45.6619 121.817 46.1309 119.137 46.1309C115.14 46.1309 112.974 42.7814 113.622 38.1143Z" fill="#FF3700"/>
</g>
<path d="M135.059 29.8083L134.057 36.9906H139.56L140.563 29.8083H145.25L142.965 46.1318H138.277L139.28 38.9263H133.777L132.774 46.1318H128.087L130.372 29.8083H135.059Z" fill="#FF3700"/>
</g>
<defs>
<clipPath id="clip0_7_752">
<rect width="145" height="75.708" fill="white"/>
</clipPath>
</defs>
</svg>
