<svg width="113" height="59" viewBox="0 0 113 59" fill="none" xmlns="http://www.w3.org/2000/svg">
<g clip-path="url(#clip0_7_327)">
<mask id="mask0_7_327" style="mask-type:luminance" maskUnits="userSpaceOnUse" x="-48" y="-75" width="209" height="209">
<path d="M-47.5981 -74.4977H160.578V133.679H-47.5981V-74.4977Z" fill="white"/>
</mask>
<g mask="url(#mask0_7_327)">
<path d="M17.6506 17.6724C16.1297 17.0552 14.4175 16.8708 12.6914 17.0946C10.3347 17.3999 6.21303 18.1842 2.65205 20.1424L0.450972 37.1209C1.99032 35.1529 7.99988 27.6564 13.1416 23.8399C13.1416 23.8399 18.8906 20.1549 18.7832 24.703C18.7574 25.7977 18.3987 26.8972 17.784 27.8833C16.044 30.6752 10.9556 37.4176 1.07955 40.1289C0.850556 40.1917 0.622718 40.2621 0.39488 40.3313C0.269974 40.3693 0.145455 40.4044 0.021127 40.4373L-0.20459 42.1789C0.0587149 42.1228 0.327608 42.0607 0.603057 41.9909C0.603057 41.9909 13.3548 39.0851 20.0745 27.6366C20.0745 27.6366 24.208 20.3334 17.6506 17.6724Z" fill="#FF3700"/>
</g>
<mask id="mask1_7_327" style="mask-type:luminance" maskUnits="userSpaceOnUse" x="-48" y="-75" width="209" height="209">
<path d="M-47.5981 -74.4977H160.578V133.679H-47.5981V-74.4977Z" fill="white"/>
</mask>
<g mask="url(#mask1_7_327)">
<path d="M28.8638 33.152C30.572 33.152 32.2258 31.8436 32.5894 29.3538C32.8982 27.0822 31.5897 25.9009 29.8815 25.9009H29.1728L28.1733 33.152H28.8638ZM30.6992 23.2295C34.2611 23.2295 36.7145 25.4285 36.1694 29.3538C35.5698 33.5883 32.4803 35.9507 28.9183 35.9507H24.2114L25.9925 23.2295H30.6992Z" fill="#FF3700"/>
</g>
<mask id="mask2_7_327" style="mask-type:luminance" maskUnits="userSpaceOnUse" x="-48" y="-75" width="209" height="209">
<path d="M-47.5981 -74.4977H160.578V133.679H-47.5981V-74.4977Z" fill="white"/>
</mask>
<g mask="url(#mask2_7_327)">
<path d="M43.1299 29.481C44.2021 29.481 45.0018 28.7177 45.1471 27.6999C45.2925 26.6643 44.6564 25.9191 43.239 25.9191H42.0395L41.6216 28.954C42.0214 29.2449 42.512 29.481 43.1299 29.481ZM38.8592 23.2295H44.293C47.4006 23.2295 49.1088 24.8286 48.7636 27.1913C48.4546 29.3174 46.801 30.8621 44.293 30.935C44.9837 32.2432 45.9467 32.8793 47.6368 32.8976C47.9095 32.8976 48.1821 32.8793 48.4365 32.8612L47.7698 35.7857C47.37 35.8948 46.7474 35.9507 46.3839 35.9507C43.5488 35.9507 42.0214 33.6426 41.3126 31.0439L40.622 35.9507H37.0784L38.8592 23.2295Z" fill="#FF3700"/>
</g>
<mask id="mask3_7_327" style="mask-type:luminance" maskUnits="userSpaceOnUse" x="-48" y="-75" width="209" height="209">
<path d="M-47.5981 -74.4977H160.578V133.679H-47.5981V-74.4977Z" fill="white"/>
</mask>
<g mask="url(#mask3_7_327)">
<path d="M55.3777 23.2295L53.5967 35.9507H50.0349L51.8158 23.2295H55.3777Z" fill="#FF3700"/>
</g>
<mask id="mask4_7_327" style="mask-type:luminance" maskUnits="userSpaceOnUse" x="-48" y="-75" width="209" height="209">
<path d="M-47.5981 -74.4977H160.578V133.679H-47.5981V-74.4977Z" fill="white"/>
</mask>
<g mask="url(#mask4_7_327)">
<path d="M67.0992 23.2295L66.663 26.3915H61.0477L60.666 29.0812H64.8276L64.6096 30.5895H60.448L59.7028 35.9507H56.1409L57.9219 23.2295H67.0992Z" fill="#FF3700"/>
</g>
<mask id="mask5_7_327" style="mask-type:luminance" maskUnits="userSpaceOnUse" x="-48" y="-75" width="209" height="209">
<path d="M-47.5981 -74.4977H160.578V133.679H-47.5981V-74.4977Z" fill="white"/>
</mask>
<g mask="url(#mask5_7_327)">
<path d="M77.1851 26.3734H74.0411L72.6964 35.9507H69.2253L70.5701 26.3734H67.4263L67.8623 23.2295H77.6213L77.1851 26.3734Z" fill="#FF3700"/>
</g>
<mask id="mask6_7_327" style="mask-type:luminance" maskUnits="userSpaceOnUse" x="-48" y="-75" width="209" height="209">
<path d="M-47.5981 -74.4977H160.578V133.679H-47.5981V-74.4977Z" fill="white"/>
</mask>
<g mask="url(#mask6_7_327)">
<path d="M88.0707 23.2295L87.6345 26.3915H82.0191L81.692 28.6815H85.8536L85.6537 30.1898H81.474L81.1104 32.7885H86.726L86.2898 35.9507H77.1123L78.8934 23.2295H88.0707Z" fill="#FF3700"/>
</g>
<mask id="mask7_7_327" style="mask-type:luminance" maskUnits="userSpaceOnUse" x="-21" y="-1" width="158" height="61">
<path d="M-20.168 -0.000389099H136.577V59.2687H-20.168V-0.000389099Z" fill="white"/>
</mask>
<g mask="url(#mask7_7_327)">
<path d="M88.5358 29.703C89.0753 25.8918 91.5465 23.2293 94.6788 23.2293C97.8635 23.2293 99.2556 25.4917 98.9599 27.841L95.5664 28.5544C95.5838 27.5624 95.2879 26.1008 94.3135 26.1008C93.2518 26.1008 92.347 27.3015 92.0511 29.3026C91.7379 31.652 92.399 32.731 93.7566 32.8353C95.166 32.9224 97.6721 32.087 98.2289 31.8436L97.5154 35.0107C96.071 35.585 94.9224 35.9504 92.8343 35.9504C89.7191 35.9504 88.0312 33.3401 88.5358 29.703Z" fill="#FF3700"/>
</g>
<path d="M105.243 23.2294L104.462 28.8266H108.751L109.532 23.2294H113.185L111.404 35.9505H107.751L108.533 30.3351H104.244L103.462 35.9505H99.8096L101.591 23.2294H105.243Z" fill="#FF3700"/>
</g>
<defs>
<clipPath id="clip0_7_327">
<rect width="113" height="59" fill="white" transform="translate(-0.0100098)"/>
</clipPath>
</defs>
</svg>
